# xmcd
# 
# Track frame offsets:
#     182
#     10892
#     26075
#     36742
#     52272
#     65412
#     78830
#     93727
#     110965
#     122255
#     133070
#     147137
#     159605
#     173755
#     188632
#     200480
#     211275
#     226257
#     237257
#     249015
#     265147
#     278497
# 
# Disc length: 3926
# 
# Revision: 2
# Processed by: cddbd v1.5.2PL0 Copyright (c) Steve Scherf et al.
# Submitted via: fre:ac v1.0.27
# 
DISCID=370f5416
DTITLE=Kenny Rogers - The Essential Collection CD2
DYEAR=0
DGENRE=Country
TTITLE0=Ticket To Knowhere
TTITLE1=Conditions (Just Dropped In)
TTITLE2=She Even Woke Me Up To Say Goodbye
TTITLE3=My Washington Woman
TTITLE4=Run Thru Your Mind
TTITLE5=Sleep Comes Easy
TTITLE6=After All
TTITLE7=Something's Burning
TTITLE8=Hurry Up Love
TTITLE9=Trying Just As Hard
TTITLE10=Sunshine
TTITLE11=Reuben James
TTITLE12=Loser
TTITLE13=Church Without A Name
TTITLE14=I Just Wanna Give My Love To You
TTITLE15=Last Few Threads Of Love
TTITLE16=Tell It All Brother
TTITLE17=Always Leaving, Always Gone
TTITLE18=Calico Silver
TTITLE19=The Way It Used To Be
TTITLE20=But You Know I Love You
TTITLE21=I Found A Reason
EXTD=
EXTT0=
EXTT1=
EXTT2=
EXTT3=
EXTT4=
EXTT5=
EXTT6=
EXTT7=
EXTT8=
EXTT9=
EXTT10=
EXTT11=
EXTT12=
EXTT13=
EXTT14=
EXTT15=
EXTT16=
EXTT17=
EXTT18=
EXTT19=
EXTT20=
EXTT21=
PLAYORDER=
